# xmcd CD database file
#
# Track frame offsets:
#	150
#	31132
#	57862
#	79990
#	104745
#	138260
#	174112
#	189110
#	209637
#	239685
#	268890
#	285380
#
# Disc length: 4207 seconds
#
# Revision: 1
# Processed by: cddbd v1.4PL0 Copyright (c) Steve Scherf et al.
# Submitted via: CDex 1.50beta10
#
DISCID=ab106d0c
DTITLE=Donald Harrison Jr - Paradise Found
DYEAR=2000
DGENRE=Jazz
TTITLE0=Paradise Found
TTITLE1=NY 2000
TTITLE2=Burnin
TTITLE3=Young Blood
TTITLE4=Jamaican Girl
TTITLE5=All My Love
TTITLE6=Giant Steps
TTITLE7=One for Bird
TTITLE8=Misty
TTITLE9=Coolin
TTITLE10=Idris Song
TTITLE11=Soul Man
EXTD=YEAR: 2000
EXTT0=
EXTT1=
EXTT2=
EXTT3=
EXTT4=
EXTT5=
EXTT6=
EXTT7=
EXTT8=
EXTT9=
EXTT10=
EXTT11=
PLAYORDER=
